# xmcd
#
# Track frame offsets:
#	150
#	15170
#	37127
#	59638
#
# Disc length: 988 seconds
#
# Revision: 0
# Processed by: cddbd v1.5.1PL2 Copyright (c) Steve Scherf et al.
# Submitted via: audiograbber 1.83.01
#
DISCID=2d03da04
DTITLE=Uwe Busse - Meine Disc
DYEAR=2005
DGENRE=Schlager
TTITLE0=Uwe Busse - Mayday Fallschirm für dein Herz ( Single Mix Version )
TTITLE1=Uwe Busse - Mayday Fallschirm für dein Herz ( Extended Mix Version )
TTITLE2=Uwe Busse - Mayday Fallschirm für dein Herz ( Club Mix Version )
TTITLE3=Uwe Busse - Mayday Fallschirm für dein Herz ( Album Mix Version )
EXTD=
EXTT0=
EXTT1=
EXTT2=
EXTT3=
PLAYORDER=
